HIERARCHY
ROOT Hips
{
	OFFSET 0.000000 0.000000 0.000000
	CHANNELS 6 Xposition Yposition Zposition Xrotation Yrotation Zrotation
	JOINT LeftUpLeg_virtual
	{
		OFFSET 0.000000 0.000000 0.000000
		CHANNELS 3 Xrotation Yrotation Zrotation
		JOINT LeftUpLeg
		{
			OFFSET 10.205400 -3.823500 0.155100
			CHANNELS 3 Xrotation Yrotation Zrotation
			JOINT LeftLeg
			{
				OFFSET 0.708757 -12.982077 0.567790
				CHANNELS 3 Xrotation Yrotation Zrotation
				JOINT LeftFoot
				{
					OFFSET -0.708756 -10.717838 -2.184338
					CHANNELS 3 Xrotation Yrotation Zrotation
					JOINT LeftToeBase
					{
						OFFSET 0.108149 -7.191104 7.560241
						CHANNELS 3 Xrotation Yrotation Zrotation
						JOINT LeftToe_End
						{
							OFFSET 0.070230 0.081724 4.490308
							CHANNELS 3 Xrotation Yrotation Zrotation
							End Site
							{
								OFFSET 0 0 0
							}
						}
					}
				}
			}
		}
	}
	JOINT RightUpLeg_virtual
	{
		OFFSET 0.000000 0.000000 0.000000
		CHANNELS 3 Xrotation Yrotation Zrotation
		JOINT RightUpLeg
		{
			OFFSET -10.205400 -3.823500 0.005500
			CHANNELS 3 Xrotation Yrotation Zrotation
			JOINT RightLeg
			{
				OFFSET -0.708756 -12.982134 0.610632
				CHANNELS 3 Xrotation Yrotation Zrotation
				JOINT RightFoot
				{
					OFFSET 0.708754 -10.717769 -1.945823
					CHANNELS 3 Xrotation Yrotation Zrotation
					JOINT RightToeBase
					{
						OFFSET -0.108140 -7.191069 7.372968
						CHANNELS 3 Xrotation Yrotation Zrotation
						JOINT RightToe_End
						{
							OFFSET -0.070227 0.081735 4.479403
							CHANNELS 3 Xrotation Yrotation Zrotation
							End Site
							{
								OFFSET 0 0 0
							}
						}
					}
				}
			}
		}
	}
	JOINT Spine_virtual
	{
		OFFSET 0.000000 0.000000 0.000000
		CHANNELS 3 Xrotation Yrotation Zrotation
		JOINT Spine
		{
			OFFSET 0.000000 6.876099 0.125700
			CHANNELS 3 Xrotation Yrotation Zrotation
			JOINT Spine1
			{
				OFFSET 0.000000 5.730043 0.104720
				CHANNELS 3 Xrotation Yrotation Zrotation
				JOINT Spine1_split
				{
					OFFSET 0.000000 5.730043 0.104720
					CHANNELS 3 Xrotation Yrotation Zrotation
					JOINT Spine2
					{
						OFFSET 0.000000 5.730043 0.104720
						CHANNELS 3 Xrotation Yrotation Zrotation
						JOINT Neck_virtual
						{
							OFFSET 0.000000 0.000000 0.000000
							CHANNELS 3 Xrotation Yrotation Zrotation
							JOINT Neck
							{
								OFFSET 0.000000 10.314075 0.188496
								CHANNELS 3 Xrotation Yrotation Zrotation
								JOINT Head
								{
									OFFSET 0.000000 7.643700 -2.377400
									CHANNELS 3 Xrotation Yrotation Zrotation
									JOINT HeadTop_End
									{
										OFFSET 0.000000 43.788605 -13.619600
										CHANNELS 3 Xrotation Yrotation Zrotation
										End Site
										{
											OFFSET 0 0 0
										}
									}
								}
							}
						}
						JOINT LeftShoulder_virtual
						{
							OFFSET 0.000000 0.000000 0.000000
							CHANNELS 3 Xrotation Yrotation Zrotation
							JOINT LeftShoulder
							{
								OFFSET 2.196100 4.412489 0.087492
								CHANNELS 3 Xrotation Yrotation Zrotation
								JOINT LeftShoulder_split
								{
									OFFSET 2.196100 4.412489 0.087492
									CHANNELS 3 Xrotation Yrotation Zrotation
									JOINT LeftArm
									{
										OFFSET 8.771219 -2.981674 -0.026999
										CHANNELS 3 Xrotation Yrotation Zrotation
										JOINT LeftForeArm
										{
											OFFSET 8.512804 0.000000 -0.000000
											CHANNELS 3 Xrotation Yrotation Zrotation
											JOINT LeftHand
											{
												OFFSET 18.484802 0.000000 -0.000000
												CHANNELS 3 Xrotation Yrotation Zrotation
												End Site
												{
													OFFSET 0 0 0
												}
											}
										}
									}
								}
							}
						}
						JOINT RightShoulder_virtual
						{
							OFFSET 0.000000 0.000000 0.000000
							CHANNELS 3 Xrotation Yrotation Zrotation
							JOINT RightShoulder
							{
								OFFSET -2.196100 4.412496 0.070690
								CHANNELS 3 Xrotation Yrotation Zrotation
								JOINT RightShoulder_split
								{
									OFFSET -2.196100 4.412496 0.070690
									CHANNELS 3 Xrotation Yrotation Zrotation
									JOINT RightArm
									{
										OFFSET -8.771282 -2.981682 -0.094208
										CHANNELS 3 Xrotation Yrotation Zrotation
										JOINT RightForeArm
										{
											OFFSET -8.494598 0.000000 0.000000
											CHANNELS 3 Xrotation Yrotation Zrotation
											JOINT RightHand
											{
												OFFSET -18.483803 0.000000 0.000001
												CHANNELS 3 Xrotation Yrotation Zrotation
												End Site
												{
													OFFSET 0 0 0
												}
											}
										}
									}
								}
							}
						}
					}
				}
			}
		}
	}
}
MOTION
Frames: 9
Frame Time: 0.03333333
1.459574 33.687809 -4.278748 0.000000 0.000000 0.000000 4.846676 7.316691 1.326827 -12.810401 9.127075 9.820274 19.812999 -3.803547 0.433906 -11.514902 17.523914 -13.512623 7.118937 -3.129318 3.454797 0.000000 0.000000 0.000000 5.951666 7.333406 1.262549 -2.806538 -5.276489 -3.998076 13.942907 15.187568 -3.867623 -20.248946 -21.093919 19.705280 5.343078 10.361019 -12.437764 0.000000 0.000000 0.000000 4.933966 12.629747 -0.087977 3.423250 -1.656992 2.414102 1.510457 -1.583277 0.255334 0.116346 -0.015054 -0.028040 0.000000 0.000000 0.000000 2.739955 0.942825 -0.217018 0.108019 9.823231 2.032083 -2.453816 -10.489250 -0.284279 0.000000 0.000000 0.000000 1.603400 -0.734139 -0.517767 1.731325 9.458231 -13.526813 0.217816 -2.791705 -0.395698 8.276201 1.096856 -52.460432 7.967242 -30.630311 1.960311 0.000000 0.000000 0.000000 3.133031 -0.035761 0.022854 -2.019631 -11.201458 12.498937 1.366385 -0.928517 1.452786 6.549398 14.787064 59.318520 -2.066837 27.754899 2.684807 0.000000 0.000000 0.000000 
1.678322 33.628952 -4.301931 0.000000 0.000000 0.000000 4.795424 6.978042 1.355250 -12.850092 9.275857 9.607585 19.770123 -3.922560 0.235405 -12.402385 16.991737 -13.681784 7.171879 -3.086180 3.550497 0.000000 0.000000 0.000000 5.781434 7.426506 1.294646 -3.058634 -5.421631 -4.496565 13.911375 14.936695 -3.723303 -20.338734 -21.131835 19.256837 5.773539 10.359344 -12.328435 0.000000 0.000000 0.000000 4.835619 12.568522 -0.091849 3.461808 -1.653787 2.421175 1.445143 -1.604025 0.228423 0.135557 -0.037941 -0.016061 0.000000 0.000000 0.000000 2.707640 0.922446 -0.254047 0.164615 9.904644 1.981010 -2.443701 -10.309375 -0.380778 0.000000 0.000000 0.000000 1.641828 -0.770609 -0.546184 1.689608 9.207620 -13.483806 0.257812 -2.879259 -0.315442 7.942616 0.546708 -52.558029 7.916620 -30.915052 2.003140 0.000000 0.000000 0.000000 3.136866 -0.062089 -0.013722 -2.004151 -11.071706 12.570255 1.550371 -0.845134 1.348255 6.450021 14.698772 59.275346 -2.050599 27.880680 2.689524 0.000000 0.000000 0.000000 
2.030403 33.518452 -4.325678 0.000000 0.000000 0.000000 4.727528 6.892977 1.307607 -13.403077 9.283657 9.543341 20.623153 -4.549549 -0.043551 -13.157274 15.572705 -14.456664 7.322365 -3.014132 3.818400 0.000000 0.000000 0.000000 5.622194 7.677279 1.230842 -3.515401 -5.611379 -5.347694 14.104606 14.643483 -3.519174 -20.044964 -21.107318 19.040199 6.031169 10.673093 -12.640331 0.000000 0.000000 0.000000 4.792476 12.557881 -0.101690 3.612616 -1.558378 2.506894 1.372525 -1.654731 0.189760 0.148767 -0.057718 -0.002721 0.000000 0.000000 0.000000 2.640330 0.873793 -0.306579 0.253044 10.028351 1.929614 -2.554109 -9.901570 -0.640690 0.000000 0.000000 0.000000 1.628019 -0.831581 -0.590935 1.631444 8.827721 -13.475485 0.335034 -2.863870 -0.282097 7.328115 -0.535970 -52.760438 7.853890 -30.726084 2.001712 0.000000 0.000000 0.000000 3.114850 -0.118704 -0.051938 -1.985479 -10.865074 12.871744 1.574475 -0.887659 1.118627 6.275135 14.532815 59.005547 -1.944637 27.658229 2.596045 0.000000 0.000000 0.000000 
2.463920 33.389103 -4.337015 0.000000 0.000000 0.000000 4.698814 7.149903 1.217357 -14.329593 9.009159 9.638491 22.075006 -5.428179 -0.302371 -13.535169 13.523822 -15.437754 7.137735 -2.944005 4.267243 0.000000 0.000000 0.000000 5.577713 7.959957 1.094381 -4.079721 -5.830143 -6.457586 14.323198 14.411704 -3.267990 -19.373512 -20.986407 19.139717 6.170549 11.238117 -13.348907 0.000000 0.000000 0.000000 4.827744 12.563885 -0.134006 3.843667 -1.373976 2.658327 1.300832 -1.721350 0.145606 0.148955 -0.076356 -0.003627 0.000000 0.000000 0.000000 2.543916 0.803823 -0.360071 0.354674 10.169417 1.888579 -2.752096 -9.306639 -1.038481 0.000000 0.000000 0.000000 1.559028 -0.909619 -0.642684 1.563385 8.362079 -13.496888 0.348836 -2.671335 -0.278444 6.570610 -1.985693 -53.067069 7.775073 -30.082274 1.948028 0.000000 0.000000 0.000000 3.074425 -0.197708 -0.088709 -1.978470 -10.582280 13.338264 1.468987 -0.933479 0.827952 6.068836 14.337653 58.538341 -1.763661 27.210908 2.421330 0.000000 0.000000 0.000000 
2.934467 33.254704 -4.337456 0.000000 0.000000 0.000000 4.726227 7.594370 1.085164 -15.201761 8.428522 9.674900 23.628746 -6.033898 -0.466951 -13.868176 11.334545 -15.700158 6.353891 -2.890437 4.703044 0.000000 0.000000 0.000000 5.645473 8.196755 0.925174 -4.782189 -6.082571 -7.759380 14.521711 14.284574 -2.932845 -18.570294 -20.776261 19.556988 6.507925 11.885056 -14.359569 0.000000 0.000000 0.000000 4.969790 12.604301 -0.194250 4.128225 -1.118002 2.850453 1.245153 -1.789496 0.108947 0.139927 -0.116448 -0.014382 0.000000 0.000000 0.000000 2.424754 0.718734 -0.400269 0.430024 10.292527 1.870047 -3.002084 -8.598043 -1.527674 0.000000 0.000000 0.000000 1.444824 -0.993907 -0.685616 1.489496 7.860714 -13.525195 0.309238 -2.399981 -0.385221 5.798348 -3.644050 -53.450834 7.670835 -29.165768 1.862319 0.000000 0.000000 0.000000 3.017847 -0.286775 -0.115849 -1.999847 -10.243528 13.886712 1.282845 -0.910642 0.545449 5.876808 14.188623 57.936533 -1.528372 26.662676 2.187126 0.000000 0.000000 0.000000 
3.401328 33.129910 -4.345196 0.000000 0.000000 0.000000 4.858638 7.951950 0.943611 -15.721325 7.626669 9.481043 24.917452 -6.016110 -0.458233 -14.481792 9.492342 -14.819608 5.382622 -2.814793 4.695180 0.000000 0.000000 0.000000 5.737207 8.424357 0.775017 -5.681943 -6.343760 -9.198363 14.762057 14.229622 -2.515641 -17.752814 -20.564043 20.331291 6.985442 12.446252 -15.521637 0.000000 0.000000 0.000000 5.184552 12.712499 -0.273282 4.434028 -0.831186 3.031629 1.212251 -1.856806 0.087691 0.116272 -0.162886 -0.017809 0.000000 0.000000 0.000000 2.295699 0.626688 -0.417935 0.439282 10.386338 1.883023 -3.272978 -7.836090 -2.061380 0.000000 0.000000 0.000000 1.300228 -1.076054 -0.709573 1.421056 7.373330 -13.552856 0.247768 -2.162432 -0.523842 5.076156 -5.318512 -53.871348 7.569479 -28.190496 1.786465 0.000000 0.000000 0.000000 2.950828 -0.377008 -0.128877 -2.060242 -9.871083 14.448866 1.058905 -0.844535 0.305659 5.739106 14.139742 57.265675 -1.255137 26.057617 1.915686 0.000000 0.000000 0.000000 
3.855085 33.015438 -4.309847 0.000000 0.000000 0.000000 5.066007 8.037808 0.834892 -15.879129 6.722314 8.982669 25.911373 -5.424862 -0.310269 -15.354130 8.131035 -13.163028 4.701109 -2.675180 4.004212 0.000000 0.000000 0.000000 5.804157 8.622926 0.696748 -6.737603 -6.561075 -10.771187 15.220254 14.197903 -2.055571 -16.817715 -20.423181 21.572647 6.958116 12.879966 -16.633734 0.000000 0.000000 0.000000 5.376333 12.882830 -0.354032 4.759733 -0.554017 3.138818 1.208258 -1.926134 0.091407 0.102231 -0.194559 -0.025166 0.000000 0.000000 0.000000 2.165098 0.534098 -0.405968 0.366215 10.446930 1.951411 -3.555030 -7.126313 -2.572738 0.000000 0.000000 0.000000 1.148254 -1.149587 -0.712204 1.365859 6.920641 -13.554305 0.148378 -2.004358 -0.750180 4.449430 -6.894985 -54.315403 7.494852 -27.303596 1.755077 0.000000 0.000000 0.000000 2.875238 -0.461542 -0.119212 -2.162520 -9.481988 14.969604 0.824744 -0.836902 0.126054 5.651881 14.194359 56.580157 -0.963658 25.413088 1.630000 0.000000 0.000000 0.000000 
4.285834 32.912956 -4.256783 0.000000 0.000000 0.000000 5.194785 7.882974 0.817659 -15.809096 5.820820 8.238727 26.800349 -4.581324 -0.086533 -16.302507 7.176008 -11.508004 4.184277 -2.467616 2.846748 0.000000 0.000000 0.000000 5.816001 8.842661 0.737686 -7.809620 -6.595807 -12.393683 16.118719 14.085124 -1.615601 -15.824928 -20.467459 23.134132 6.282495 13.129584 -17.485750 0.000000 0.000000 0.000000 5.462095 13.079021 -0.407942 5.117031 -0.342654 3.137336 1.230923 -2.010091 0.124833 0.093310 -0.203059 -0.029119 0.000000 0.000000 0.000000 2.042822 0.437426 -0.359525 0.202743 10.471605 2.100170 -3.853199 -6.607377 -3.020411 0.000000 0.000000 0.000000 1.002206 -1.220456 -0.698377 1.328665 6.520058 -13.523406 0.009595 -1.933337 -1.036610 3.938207 -8.352342 -54.773442 7.489015 -26.607431 1.808399 0.000000 0.000000 0.000000 2.807615 -0.537731 -0.084512 -2.301103 -9.091167 15.431791 0.643285 -0.931091 0.015304 5.563718 14.307096 55.916549 -0.679113 24.753755 1.349195 0.000000 0.000000 0.000000 
4.710406 32.807110 -4.119259 0.000000 0.000000 0.000000 5.209893 7.700471 0.910202 -15.689959 5.142837 7.331698 27.736133 -3.661464 0.148371 -17.372952 6.488138 -10.236661 3.772597 -2.236201 1.534976 0.000000 0.000000 0.000000 5.758590 9.052458 0.881842 -8.814803 -6.292539 -13.936967 17.508732 13.677146 -1.245792 -14.927168 -20.829164 24.403327 5.506558 13.073327 -17.927363 0.000000 0.000000 0.000000 5.392498 13.311301 -0.384883 5.491100 -0.246558 3.003927 1.258197 -2.128158 0.178448 0.093101 -0.191833 -0.025789 0.000000 0.000000 0.000000 1.935612 0.333438 -0.282223 -0.060782 10.446703 2.369960 -4.169741 -6.323057 -3.375644 0.000000 0.000000 0.000000 0.861012 -1.297604 -0.676880 1.307351 6.149572 -13.479122 -0.160315 -1.910728 -1.311789 3.482679 -9.711551 -55.231222 7.583020 -26.097927 1.951415 0.000000 0.000000 0.000000 2.741359 -0.615149 -0.026530 -2.461593 -8.710358 15.820549 0.518046 -1.100032 -0.038429 5.422367 14.427794 55.294848 -0.417173 24.068315 1.085310 0.000000 0.000000 0.000000 
